<?xml version="1.0" encoding="UTF-8"?>
<!DOCTYPE svg PUBLIC "-//W3C//DTD SVG 1.0//EN" "http://www.w3.org/TR/2001/REC-SVG-20010904/DTD/svg10.dtd">
<!-- Creator: CorelDRAW 2020 (64-Bit) -->
<svg xmlns="http://www.w3.org/2000/svg" xml:space="preserve" width="180px" height="62px" version="1.0" style="shape-rendering:geometricPrecision; text-rendering:geometricPrecision; image-rendering:optimizeQuality; fill-rule:evenodd; clip-rule:evenodd"
viewBox="0 0 1085600 374600"
 xmlns:xlink="http://www.w3.org/1999/xlink"
 xmlns:xodm="http://www.corel.com/coreldraw/odm/2003">
 <defs>
  <style type="text/css">
   <![CDATA[
    .fil1 {fill:#2B2A29}
    .fil0 {fill:#2B2A29;fill-rule:nonzero}
   ]]>
  </style>
 </defs>
 <g id="Слой_x0020_1">
  <metadata id="CorelCorpID_0Corel-Layer"/>
  <g id="_9987875648">
   <path class="fil0" d="M198100 307700c-100,600 -1100,6400 -2900,17500l-1300 7800c1600,100 2700,200 3300,200l5700 -200c8100,0 14500,1300 19200,3800 4800,2600 7200,7100 7200,13600 0,7100 -2900,12700 -8800,17000 -5800,4300 -12400,6400 -19900,6400 -2500,0 -5500,-100 -9200,-200 -4700,-200 -8600,-300 -11800,-300 -1700,0 -6000,100 -12800,300l600 -3500 1200 0c3500,0 5600,-1100 6100,-3300 600,-2300 1400,-6400 2400,-12500l4500 -26700c1700,-10100 2500,-16500 2500,-19200 0,-1000 -400,-1700 -1200,-2200 -800,-400 -2400,-600 -4700,-600l-3700 0 600 -3500c3700,200 10600,300 20600,300l27000 -300c2700,0 5000,200 6800,400l400 800c-1200,6600 -2000,11900 -2200,16200l-3600 0 100 -6900c0,-1500 -200,-2500 -600,-3300 -1900,-1400 -6700,-2100 -14500,-2100 -3500,0 -7200,200 -11000,500zm-10000 60300c5700,900 9600,1400 11800,1400 5700,0 9700,-1900 12000,-5800 2300,-3900 3500,-8200 3500,-12900 0,-4200 -1200,-7300 -3600,-9400 -2400,-2200 -6300,-3200 -11700,-3200l-7100 100 -2400 14400c-1600,10000 -2500,15100 -2500,15400zm99800 -7000l1100 3300c-8500,6900 -14400,10300 -17800,10300 -1100,0 -2000,-300 -2500,-1000 -800,-1000 -1200,-2300 -1200,-3700 0,-2100 1200,-7800 3600,-17300l900 -3600c-4100,6500 -7000,10800 -8600,12700 -2700,3300 -5200,5900 -7500,7800 -2400,1900 -4800,3300 -7100,4300 -1400,500 -2600,800 -3600,800 -1800,0 -3300,-700 -4300,-2100 -1100,-1300 -1600,-3700 -1600,-7000 0,-3900 700,-8600 2200,-14000 1500,-5500 3100,-9800 4700,-12700 900,-1600 2800,-3500 5700,-5800 5400,-4300 9200,-6900 11400,-7900 2300,-1000 4700,-1500 7300,-1500 1900,0 3700,200 5600,700 1800,400 3600,1100 5400,1900l4700 -2600 1700 1100c-300,600 -600,1700 -1100,3100l-1900 6900 -5700 24500c-500,2200 -800,3800 -800,5000 0,1200 400,1800 1200,1800 1500,0 4200,-1700 8200,-5000zm-13300 -29600c-1600,-700 -3000,-1300 -4400,-1700 -1500,-300 -2800,-500 -4200,-500 -2300,0 -4300,800 -5900,2400 -1700,1500 -3500,5500 -5400,11900 -2600,8500 -3900,14800 -3900,19000 0,1200 200,2100 600,2700 400,600 900,900 1400,900 600,0 1200,-300 2100,-900 2300,-1500 5000,-4200 8000,-8100 3000,-3900 5500,-7900 7500,-12000 2000,-4200 3200,-7900 3700,-11100l500 -2600zm57000 17800c-2400,-400 -5400,-600 -9000,-600 -3000,0 -5600,200 -7900,600 -600,2200 -1100,4700 -1600,7400 -400,2000 -1000,4900 -1900,8600 -500,2600 -1000,5100 -1300,7500 -4400,200 -8100,900 -11200,1900l-1300 -1300c1500,-3600 2800,-7600 4000,-12100l1200 -4600c2700,-10200 4100,-17300 4100,-21400 0,-1000 -400,-1500 -1200,-1500 -600,0 -1800,500 -3600,1500 -1700,1100 -3100,2000 -4100,2900l-1300 -2800c300,-200 1700,-1200 4100,-3100 7300,-5700 12400,-8600 15400,-8600 1900,0 2900,1000 2900,3000 0,1800 -800,6700 -2500,14500l-900 3800c4300,200 7200,400 8700,400l8600 -100c2600,-8400 4100,-15000 4700,-19700 5000,-400 8700,-1000 11200,-1900l1400 1200c-800,1800 -1600,4200 -2500,7200l-1600 5100c-600,1900 -1100,3300 -1300,4400l-2900 9800c-1500,5300 -2300,9600 -2300,12600 0,1300 400,2000 1200,2000 700,0 2100,-600 3900,-1800 1900,-1200 3100,-2100 3700,-2800l1300 3000c-6400,4700 -10800,7500 -13200,8700 -2400,1100 -4400,1600 -6000,1600 -2400,0 -3700,-1800 -3700,-5500 0,-2200 700,-5600 2000,-10300l1700 -5700c500,-1600 900,-3000 1200,-3900zm42800 600c200,-200 1500,-1700 4000,-4700 6100,-7200 11400,-12600 15800,-16100 4400,-3600 8800,-5400 13300,-5400 1000,0 2000,100 3000,200l0 600c-1200,4100 -1900,6700 -2000,7700l-500 400c-2000,-900 -3700,-1300 -5000,-1300 -2200,0 -4700,700 -7600,2200 -2800,1500 -5300,3600 -7500,6300 200,800 1300,4000 3300,9600 2000,5600 3700,9700 4900,12200 1300,2500 2200,3900 2800,4400 600,500 1100,700 1600,700 1600,0 4200,-1300 7800,-3900l1000 3000c-9100,6000 -14900,8900 -17200,8900 -1500,0 -3000,-1200 -4500,-3800 -1400,-2600 -3200,-6900 -5300,-13100l-3100 -8900 -2500 2700c-1500,1600 -2500,3000 -3000,4200 -500,1200 -1200,3600 -1900,7200 -800,3600 -1200,6900 -1400,9800 -3200,0 -7100,700 -11700,1900l-900 -1300c2200,-7300 4200,-15200 6100,-23800 1800,-8500 2700,-13300 2700,-14500 0,-1400 -400,-2100 -1400,-2100 -1100,0 -3700,1400 -7800,4100l-1300 -2900c9700,-7000 16400,-10500 19900,-10500 2300,0 3500,1400 3500,4100 0,1600 -600,4700 -1800,9300l-3300 12800zm78300 11100l1100 2800 -8700 5500c-3600,2000 -6700,3400 -9200,4200 -2400,800 -4700,1200 -6800,1200 -4100,0 -7300,-1100 -9600,-3200 -2200,-2200 -3400,-5300 -3400,-9400 0,-4800 1000,-10300 3000,-16700 1500,-4500 3400,-8000 5800,-10600 2500,-2600 6600,-5500 12400,-8500 3300,-1700 6700,-2600 10100,-2600 3000,0 5500,800 7200,2400 1800,1500 2700,3500 2700,6100 0,3000 -900,5900 -2600,8500 -1800,2600 -4900,5000 -9400,7100 -4500,2200 -10000,3800 -16600,4800 -700,2500 -1100,4800 -1100,7000 0,2700 700,4800 2100,6100 1400,1400 3300,2000 5900,2000 1900,0 4400,-500 7400,-1700 3100,-1100 6300,-2800 9700,-5000zm-23600 -11200c5300,-1400 8900,-2800 11000,-4100 2100,-1300 3800,-3200 5200,-5700 1400,-2400 2100,-4600 2100,-6500 0,-1500 -500,-2600 -1400,-3500 -900,-900 -2100,-1300 -3600,-1300 -1700,0 -3300,500 -4800,1600 -1600,1100 -3000,3000 -4300,5700 -1300,2800 -2700,7400 -4200,13800zm34300 24900l-1000 -1300 1200 -4000c800,-2200 1800,-5600 2900,-9900 1700,-6000 3000,-11800 4000,-17200 500,-3100 800,-5100 800,-6100 0,-1100 -200,-1800 -400,-2400 -200,-300 -500,-400 -900,-400 -1300,0 -4000,1700 -8000,5200l-1500 -2600c5800,-4500 9500,-7300 11100,-8300 2300,-1600 4300,-2700 6000,-3300 1100,-400 2100,-700 2800,-700 900,0 1700,300 2200,900 600,600 900,1400 900,2300 0,1000 -200,2400 -600,4300 -1100,5100 -1800,8300 -2300,9800l-2100 9100c4400,-7700 9100,-13700 14000,-18000 6300,-5600 11300,-8400 15100,-8400 1100,0 2000,400 2700,1100 600,800 1000,1800 1000,3100 0,1400 -300,3500 -1000,6400 -1800,6600 -3200,11900 -4300,15800 3300,-6100 6800,-11100 10500,-14900 3800,-3900 7400,-6800 11000,-8700 3600,-1800 6500,-2800 8800,-2800 1200,0 2100,500 2700,1300 700,900 1000,2200 1000,4000 0,1800 -800,5600 -2400,11500l-2100 7700c-700,2500 -1500,6300 -2400,11300 -500,2800 -800,4500 -800,5000 0,1300 400,1900 1200,1900 400,0 1000,-300 1700,-700 2500,-1500 4600,-2900 6200,-4300l1400 2600 -8700 6200c-2700,1700 -4900,2900 -6700,3600 -1700,600 -3000,900 -3900,900 -1200,0 -2100,-400 -2800,-1200 -700,-800 -1100,-1900 -1100,-3400 0,-1300 300,-3300 1000,-6100l5500 -22200c700,-2800 1000,-4700 1000,-5700 0,-800 -100,-1400 -500,-1700 -300,-400 -700,-600 -1200,-600 -700,0 -1600,200 -2500,700 -1900,1100 -4200,2900 -6700,5700 -2600,2700 -4800,5700 -6600,9100 -1900,3300 -3500,7500 -5000,12400 -1500,5000 -2300,8900 -2500,11700 -2400,0 -6000,400 -11000,1300l-1200 -1300c800,-2000 2400,-6900 4800,-14800 1200,-3500 2400,-8500 3700,-14900 900,-4600 1400,-7600 1400,-9000 0,-800 -200,-1400 -500,-1800 -400,-400 -800,-600 -1400,-600 -1200,0 -2800,800 -4700,2400 -3100,2400 -6400,6600 -10000,12400 -2700,4400 -4700,9000 -6100,14100 -1300,5100 -2100,9000 -2300,11700 -3200,0 -6900,600 -11400,1800zm120300 -25400c-2400,-400 -5400,-600 -9000,-600 -3000,0 -5600,200 -7900,600 -600,2200 -1100,4700 -1600,7400 -400,2000 -1000,4900 -1800,8600 -600,2600 -1100,5100 -1400,7500 -4400,200 -8100,900 -11200,1900l-1300 -1300c1500,-3600 2800,-7600 4000,-12100l1300 -4600c2600,-10200 4000,-17300 4000,-21400 0,-1000 -400,-1500 -1200,-1500 -600,0 -1800,500 -3500,1500 -1800,1100 -3200,2000 -4200,2900l-1300 -2800c300,-200 1700,-1200 4100,-3100 7300,-5700 12400,-8600 15400,-8600 1900,0 2900,1000 2900,3000 0,1800 -800,6700 -2500,14500l-800 3800c4200,200 7100,400 8600,400l8600 -100c2600,-8400 4200,-15000 4700,-19700 5000,-400 8700,-1000 11200,-1900l1400 1200c-800,1800 -1600,4200 -2500,7200l-1600 5100c-600,1900 -1100,3300 -1300,4400l-2800 9800c-1600,5300 -2300,9600 -2300,12600 0,1300 300,2000 1100,2000 800,0 2100,-600 3900,-1800 1900,-1200 3100,-2100 3700,-2800l1300 3000c-6400,4700 -10800,7500 -13200,8700 -2400,1100 -4400,1600 -6000,1600 -2400,0 -3700,-1800 -3700,-5500 0,-2200 700,-5600 2100,-10300l1600 -5700c500,-1600 900,-3000 1200,-3900zm44400 -2400c4000,-2400 8000,-3600 12100,-3600 3400,0 6100,900 8200,2700 2100,1800 3100,4400 3100,7700 0,5600 -2400,10500 -7300,14700 -4900,4200 -10800,6300 -17700,6300 -4600,0 -8100,-1100 -10300,-3500 -2200,-2300 -3200,-4900 -3200,-7900 0,-2000 700,-5600 2300,-11000 2600,-9200 3900,-14900 3900,-17000 0,-900 -400,-1300 -1200,-1300 -1600,0 -4800,1700 -9600,5100l-1200 -2700c7200,-5300 12100,-8800 14800,-10300 2800,-1600 5100,-2400 7200,-2400 2300,0 3400,1300 3400,3900 0,2000 -500,4800 -1500,8500l-3000 10800zm-800 2900c-2100,6300 -3200,10700 -3200,13200 0,4900 2100,7300 6300,7300 2800,0 5400,-1200 7900,-3700 2400,-2500 3600,-5600 3600,-9300 0,-2800 -600,-5000 -2000,-6800 -1300,-1700 -3200,-2600 -5900,-2600 -1500,0 -3700,600 -6700,1900zm51700 10900l1400 2700 -3700 2600c-8200,5600 -13500,8400 -16200,8400 -2600,0 -3900,-1800 -3900,-5600 0,-1700 600,-4900 1900,-9500l3400 -12200c2600,-9100 4200,-16400 5000,-21700 6600,-600 10500,-1200 11700,-1700l1300 1000c-700,1800 -1500,4200 -2400,7200l-1600 5100c-600,1900 -1100,3300 -1400,4300l-1900 6500c-2500,8600 -3700,14000 -3700,16100 0,1200 400,1700 1300,1700 1000,0 3900,-1600 8800,-4900zm8800 -23500l-1200 -2900c4600,-3300 8600,-5900 12000,-7800 3500,-1800 6100,-2800 7900,-2800 1100,0 2000,400 2600,1000 600,600 900,1600 900,3100 0,1700 -600,4900 -1900,9300l-3000 11100c-1100,4200 -2100,8200 -2800,12000 -300,1700 -500,2900 -500,3700 0,800 100,1300 500,1700 300,400 700,600 1300,600 700,0 1600,-400 2700,-1100 1800,-1200 4100,-3400 6800,-6800 2700,-3400 5100,-7200 7100,-11300 2000,-4200 3500,-8200 4400,-12100 1000,-3800 1600,-6900 1700,-9100 3500,-100 7200,-800 11200,-2100l800 1100c-1700,5200 -3700,12000 -6000,20300 -2600,10000 -4000,16300 -4000,19000 0,1200 500,1800 1500,1800 400,0 1100,-300 2000,-800 2100,-1200 4000,-2500 5600,-3900l1100 2900 -9300 6700c-2600,1700 -4500,2700 -5800,3200 -1300,500 -2400,700 -3300,700 -1100,0 -1900,-300 -2500,-1100 -600,-700 -800,-1800 -800,-3100 0,-1800 500,-4800 1700,-9300l3000 -11100c-4100,7400 -9400,13800 -15800,19000 -4600,3800 -8400,5600 -11300,5600 -1500,0 -2700,-500 -3600,-1500 -800,-1000 -1200,-2600 -1200,-4800 0,-1200 100,-2300 300,-3500 300,-1500 1000,-4400 2200,-8700l1500 -5400c2300,-8300 3500,-13500 3500,-15600 0,-600 -200,-1200 -400,-1500 -300,-400 -700,-600 -1100,-600 -1000,0 -3600,1400 -7800,4100zm26500 -31000c6300,3100 12000,4700 17200,4700 400,0 1000,-100 1700,-200l0 1800 -1100 800c-800,500 -1200,900 -1400,1100 -2200,300 -5000,500 -8400,500 -3400,0 -8200,-600 -14500,-1700l0 -2300c800,-500 1900,-1300 3500,-2300 1300,-900 2300,-1700 3000,-2400zm66500 19800c3800,-1700 7800,-2600 11900,-2600 9300,0 13900,3300 13900,9800 0,6500 -4500,11000 -13600,13700 3000,0 5700,700 8300,2100 2500,1500 3700,3900 3700,7300 0,5300 -2200,9700 -6700,13200 -4500,3500 -10400,5200 -17600,5200 -5200,0 -9900,-1200 -14000,-3600 1200,-2400 2100,-5500 2700,-9100l3000 0 0 5700c3000,1900 6400,2900 10300,2900 8100,0 12200,-4100 12200,-12200 0,-6000 -3400,-8900 -10100,-8900 -2100,0 -4000,200 -5800,600l-700 -400 1400 -4100c2400,200 4600,300 6400,300 3400,0 6100,-1000 8000,-2900 2000,-1900 3000,-4500 3000,-7900 0,-2200 -700,-3800 -2100,-5000 -1400,-1200 -3300,-1800 -5600,-1800 -1900,0 -3600,400 -5100,1200 -1500,800 -3200,2500 -5300,5100l-2700 -1100c1800,-2600 3300,-5100 4500,-7500zm81800 35100l1100 3300c-8500,6900 -14400,10300 -17800,10300 -1200,0 -2000,-300 -2500,-1000 -800,-1000 -1200,-2300 -1200,-3700 0,-2100 1200,-7800 3600,-17300l900 -3600c-4200,6500 -7000,10800 -8600,12700 -2700,3300 -5200,5900 -7600,7800 -2300,1900 -4700,3300 -7000,4300 -1400,500 -2600,800 -3600,800 -1800,0 -3300,-700 -4300,-2100 -1100,-1300 -1600,-3700 -1600,-7000 0,-3900 700,-8600 2200,-14000 1500,-5500 3100,-9800 4700,-12700 900,-1600 2800,-3500 5600,-5800 5500,-4300 9300,-6900 11500,-7900 2300,-1000 4700,-1500 7300,-1500 1900,0 3700,200 5600,700 1800,400 3600,1100 5400,1900l4700 -2600 1700 1100c-300,600 -600,1700 -1100,3100l-1900 6900 -5700 24500c-600,2200 -800,3800 -800,5000 0,1200 400,1800 1200,1800 1500,0 4200,-1700 8200,-5000zm-13300 -29600c-1600,-700 -3000,-1300 -4500,-1700 -1400,-300 -2700,-500 -4100,-500 -2300,0 -4300,800 -6000,2400 -1600,1500 -3400,5500 -5300,11900 -2600,8500 -3900,14800 -3900,19000 0,1200 200,2100 600,2700 400,600 900,900 1400,900 500,0 1200,-300 2100,-900 2300,-1500 4900,-4200 8000,-8100 3000,-3900 5500,-7900 7500,-12000 1900,-4200 3200,-7900 3700,-11100l500 -2600zm15700 42300c100,-900 200,-1800 400,-2900 300,-2000 500,-4200 700,-6500l1600 -500c1000,1600 2000,2400 3200,2400 1800,0 3600,-900 5300,-2800 1800,-1800 5000,-6500 9700,-13900 6600,-10400 12100,-17300 16400,-20700 4200,-3400 7800,-5200 10700,-5200 2500,0 3700,1400 3700,4100 0,2500 -1000,7500 -3100,15100l-2700 9300c-1400,5100 -2100,9000 -2100,11800 0,1300 400,2000 1200,2000 700,0 2100,-600 3900,-1800 1800,-1200 3000,-2100 3700,-2800l1200 3000c-6400,4600 -10800,7500 -13200,8600 -2400,1200 -4300,1700 -5900,1700 -2500,0 -3700,-1800 -3700,-5500 0,-2200 600,-5700 2000,-10300l1700 -5700c2900,-10300 4400,-16500 4400,-18800 0,-900 -300,-1300 -900,-1300 -900,0 -2600,1500 -4900,4500 -2200,2900 -6600,9700 -13000,20400 -4300,7200 -7900,11800 -10600,13700 -2600,1800 -4900,2700 -6900,2700 -500,0 -1400,-200 -2800,-600z"/>
   <polygon class="fil1" points="26100,346600 128200,346600 128200,343100 26100,343100 "/>
   <polygon class="fil1" points="957400,347900 1059500,347900 1059500,344500 957400,344500 "/>
   <path class="fil0" d="M91000 24800c5700,0 10600,800 14600,2500 4000,1600 7300,3900 9900,6700 2500,2900 4400,6200 5600,10000 1200,3900 1800,8000 1800,12300l0 102500c0,4300 -600,8400 -1800,12200 -1200,3900 -3100,7200 -5600,10000 -2600,2900 -5900,5100 -9900,6800 -4000,1700 -8900,2500 -14600,2500l-18200 0 0 38900 -22700 0 0 -38900 -18600 0c-5700,0 -10500,-800 -14600,-2500 -4000,-1700 -7200,-3900 -9700,-6800 -2400,-2800 -4300,-6100 -5400,-10000 -1200,-3800 -1800,-7900 -1800,-12200l0 -102500c0,-4300 600,-8400 1800,-12300 1100,-3800 3000,-7100 5400,-10000 2500,-2800 5700,-5100 9700,-6700 4100,-1700 8900,-2500 14600,-2500l18600 0 0 -24800 22700 0 0 24800 18200 0zm-40900 22600l-18600 0c-3300,0 -5600,900 -6900,2700 -1300,1800 -1900,3800 -1900,6200l0 102500c0,2400 600,4400 1900,6200 1300,1800 3600,2600 6900,2600l18600 0 0 -120200zm40900 120200c3400,0 5700,-800 7000,-2600 1200,-1800 1900,-3800 1900,-6200l0 -102500c0,-2400 -700,-4400 -1900,-6200 -1300,-1800 -3600,-2700 -7000,-2700l-18200 0 0 120200 18200 0zm129700 22400l-40400 0 -4700 39200 -22700 0 23300 -204400 48300 0 23600 204400 -23000 0 -4400 -39200zm-2400 -20600l-14100 -122000 -7700 0 -13800 122000 35600 0zm122000 -144600l22700 0 0 204400 -22700 0 0 -116700 -35100 0 0 116700 -22700 0 0 -204400 22700 0 0 65100 35100 0 0 -65100zm162300 181700l0 49800 -15600 0 -4400 -27100 -70400 0 -2100 27100 -18300 0 0 -49800 13300 0c4100,-2700 6300,-7200 6500,-13500l6700 -168200 68700 0 0 181700 15600 0zm-38300 0l0 -159100 -24200 0 -6100 146500c-400,5100 -2000,9300 -4800,12600l35100 0zm113700 -183500c5700,0 10600,800 14600,2500 4000,1700 7300,3900 9700,6800 2500,2800 4300,6200 5500,10000 1200,3800 1700,7900 1700,12200l0 145000c0,4300 -500,8400 -1700,12200 -1200,3800 -3000,7100 -5500,10000 -2400,2800 -5700,5100 -9700,6800 -4000,1600 -8900,2500 -14600,2500l-17400 0c-5700,0 -10500,-900 -14500,-2500 -4100,-1700 -7300,-4000 -9800,-6800 -2400,-2900 -4200,-6200 -5400,-10000 -1200,-3800 -1800,-7900 -1800,-12200l0 -145000c0,-4300 600,-8400 1800,-12200 1200,-3800 3000,-7200 5400,-10000 2500,-2900 5700,-5100 9800,-6800 4000,-1700 8800,-2500 14500,-2500l17400 0zm0 185300c3200,0 5400,-900 6800,-2700 1400,-1700 2100,-3800 2100,-6100l0 -145000c0,-2300 -700,-4400 -2100,-6200 -1400,-1700 -3600,-2600 -6800,-2600l-17400 0c-3300,0 -5600,900 -6900,2600 -1300,1800 -1900,3900 -1900,6200l0 145000c0,2300 600,4400 1900,6100 1300,1800 3600,2700 6900,2700l17400 0zm145800 -75400c0,5700 -800,10500 -2500,14600 -1600,4000 -3900,7200 -6900,9700 -2900,2400 -6300,4200 -10100,5400 -3900,1200 -7900,1800 -12300,1800l-20900 0 0 64800 -22700 0 0 -204400 43600 0c5700,0 10600,800 14600,2500 4000,1600 7300,3900 9900,6700 2500,2900 4400,6200 5600,10000 1200,3900 1700,8000 1700,12300l0 76600zm-22900 -76600c0,-2400 -700,-4400 -1900,-6200 -1300,-1800 -3600,-2700 -7000,-2700l-20900 0 0 94300 20900 0c2600,0 4700,-600 6400,-1900 1600,-1300 2500,-3600 2500,-6900l0 -76600zm116600 172900l0 -129900 -33500 33900 0 96000 -22700 0 0 -204400 22700 0 0 81000 33500 -35100 0 -45900 22700 0 0 204400 -22700 0zm121700 -204400l22700 0 0 204400 -22700 0 0 -116700 -35100 0 0 116700 -22600 0 0 -204400 22600 0 0 65100 35100 0 0 -65100zm146400 172900c0,5700 -800,10500 -2500,14600 -1600,4000 -3900,7200 -6800,9700 -2800,2400 -6100,4300 -10000,5400 -3800,1200 -7900,1800 -12200,1800l-44200 0 0 -181800 -21200 0 0 -22600 43900 0 0 64800 21500 0c5700,0 10600,800 14600,2500 4000,1600 7300,3900 9700,6700 2500,2900 4300,6200 5500,10100 1100,3800 1700,7900 1700,12200l0 76600zm-22700 -76600c0,-2600 -600,-4700 -1900,-6300 -1200,-1700 -3600,-2500 -6900,-2500l-21500 0 0 94200 21500 0c2600,0 4700,-600 6300,-1900 1700,-1300 2500,-3600 2500,-6900l0 -76600z"/>
  </g>
 </g>
</svg>
